<svg width="32" height="32" viewBox="0 0 32 32" fill="none" xmlns="http://www.w3.org/2000/svg">
<path d="M10.5119 6.03125C10.5023 6.03125 10.4927 6.03128 10.4831 6.03133L10.4436 9.28995C10.4526 9.28986 10.4616 9.28978 10.4707 9.28978H10.4707C12.6156 9.28978 14.2792 10.9809 17.8952 17.0717L18.1157 17.4425L18.1301 17.4668L20.1543 14.4297L20.1403 14.4062C19.6639 13.6315 19.2062 12.9186 18.7673 12.2677C18.2583 11.5135 17.7715 10.8397 17.2991 10.2382C14.907 7.19246 12.906 6.03125 10.5119 6.03125Z" fill="url(#paint0_linear)"/>
<path d="M10.4832 6.03133C8.07758 6.04371 5.95081 7.5993 4.4151 9.97968C4.4106 9.98665 4.40611 9.99363 4.40161 10.0006L7.22059 11.5349C7.22516 11.528 7.22976 11.5211 7.23436 11.5142C8.13112 10.164 9.24711 9.30277 10.4438 9.28995C10.4528 9.28986 10.4618 9.28978 10.4709 9.28978L10.5121 6.03125C10.5025 6.03125 10.4929 6.03128 10.4832 6.03133Z" fill="url(#paint1_linear)"/>
<path d="M4.41535 9.98047C4.41086 9.98744 4.40636 9.99442 4.40187 10.0014C3.39273 11.5723 2.64046 13.5 2.2339 15.5796C2.23214 15.5886 2.23039 15.5976 2.22864 15.6066L5.39564 16.3538C5.3973 16.3448 5.39896 16.3358 5.40063 16.3267C5.73914 14.4991 6.38363 12.8041 7.22083 11.5357C7.2254 11.5288 7.23 11.5219 7.2346 11.515L4.41535 9.98047Z" fill="url(#paint2_linear)"/>
<path d="M5.40046 16.3253L2.23373 15.5781C2.23197 15.5871 2.23021 15.5961 2.22846 15.6052C2.00677 16.7488 1.89399 17.911 1.89162 19.0759C1.89161 19.0853 1.8916 19.0948 1.8916 19.1042L5.13949 19.3947C5.13923 19.3853 5.13896 19.376 5.13874 19.3665C5.13715 19.2989 5.13634 19.2304 5.13631 19.161C5.13793 18.2189 5.22467 17.2789 5.39547 16.3524C5.39712 16.3434 5.39879 16.3343 5.40046 16.3253Z" fill="url(#paint3_linear)"/>
<path d="M5.23828 20.4083C5.18002 20.0735 5.147 19.7348 5.13949 19.395C5.13923 19.3855 5.13896 19.3762 5.13874 19.3667L1.89162 19.0762C1.89161 19.0856 1.8916 19.095 1.8916 19.1044V19.1063C1.8916 19.8313 1.95207 20.5101 2.06958 21.1373C2.07127 21.1463 2.07294 21.1552 2.07467 21.1643L5.24319 20.4354C5.24152 20.4264 5.2399 20.4174 5.23828 20.4083Z" fill="url(#paint4_linear)"/>
<path d="M5.97788 22.0873C5.62446 21.7015 5.37433 21.145 5.24283 20.4334C5.24117 20.4244 5.23955 20.4153 5.23793 20.4062L2.06921 21.1352C2.07091 21.1443 2.07258 21.1532 2.07431 21.1622C2.31381 22.4197 2.78352 23.4677 3.45618 24.2605C3.46216 24.2676 3.46816 24.2746 3.47418 24.2816L5.99676 22.1076C5.99045 22.1009 5.98413 22.0941 5.97788 22.0873Z" fill="url(#paint5_linear)"/>
<path d="M15.3659 13.0742C13.4565 16.003 12.2997 17.84 12.2997 17.84C9.75613 21.8273 8.87619 22.7209 7.46004 22.7209C6.86912 22.7209 6.37545 22.5105 5.99724 22.1083C5.99094 22.1016 5.98462 22.0948 5.97837 22.088L3.45667 24.2613C3.46265 24.2683 3.46865 24.2754 3.47467 24.2824C4.40346 25.365 5.71446 25.9657 7.3363 25.9657C9.79005 25.9657 11.5548 24.8089 14.6921 19.3249C14.6921 19.3249 15.9999 17.0155 16.8995 15.4246C16.3422 14.5248 15.8351 13.7459 15.3659 13.0742Z" fill="#0082FB"/>
<path d="M18.7696 8.45312C18.7631 8.45996 18.7566 8.46694 18.7501 8.47379C18.2487 9.00804 17.7675 9.60466 17.2993 10.2377C17.7717 10.8392 18.2594 11.5143 18.7685 12.2684C19.3684 11.3425 19.9284 10.5925 20.4773 10.0177C20.4838 10.0109 20.4902 10.0043 20.4967 9.99749L18.7696 8.45312Z" fill="url(#paint6_linear)"/>
<path d="M28.0392 8.16596C26.7076 6.82063 25.1197 6.03125 23.4223 6.03125C21.6324 6.03125 20.1269 7.01209 18.7689 8.45306C18.7625 8.45989 18.7559 8.46688 18.7495 8.47373L20.4767 10.0176C20.4832 10.0108 20.4896 10.0042 20.4961 9.99742C21.3906 9.06692 22.2564 8.60233 23.2161 8.60233H23.2161C24.249 8.60233 25.2161 9.08859 26.0536 9.94106C26.0601 9.94774 26.0666 9.95436 26.0732 9.96109L28.059 8.18599C28.0524 8.17928 28.0458 8.17264 28.0392 8.16596Z" fill="#0082FB"/>
<path d="M31.8895 18.6478C31.8149 14.3282 30.3034 10.4665 28.0597 8.18604C28.053 8.17933 28.0464 8.1727 28.0398 8.16602L26.0542 9.94111C26.0608 9.94779 26.0673 9.95441 26.0738 9.96114C27.7617 11.695 28.9195 14.9199 29.0248 18.6468C29.025 18.6562 29.0253 18.6656 29.0256 18.675L31.89 18.6759C31.8898 18.6665 31.8897 18.6572 31.8895 18.6478Z" fill="url(#paint7_linear)"/>
<path d="M31.8892 18.6756C31.8891 18.6662 31.8889 18.6568 31.8888 18.6474L29.024 18.6465C29.0243 18.6559 29.0246 18.6652 29.0248 18.6746C29.0295 18.8496 29.0318 19.0255 29.0318 19.2026C29.0318 20.2187 28.8801 21.0401 28.5714 21.6331C28.5668 21.6419 28.5621 21.6508 28.5575 21.6595L30.6934 23.8808C30.6987 23.8728 30.7039 23.8647 30.7091 23.8566C31.4845 22.6602 31.8916 20.9981 31.8916 18.9826C31.8916 18.88 31.8908 18.7776 31.8892 18.6756Z" fill="url(#paint8_linear)"/>
<path d="M28.5715 21.6328C28.5669 21.6416 28.5622 21.6504 28.5576 21.6591C28.2904 22.159 27.9092 22.4924 27.4108 22.6382L28.3845 25.7068C28.5134 25.663 28.6389 25.6139 28.7611 25.5593C28.7975 25.5431 28.8337 25.5264 28.8696 25.5092C28.8903 25.4993 28.9109 25.4892 28.9314 25.479C29.5752 25.1581 30.1193 24.6849 30.5593 24.0751C30.5862 24.0378 30.6128 24.0003 30.6389 23.9621C30.6573 23.9351 30.6755 23.9079 30.6934 23.8805C30.6987 23.8725 30.7039 23.8644 30.7092 23.8563L28.5715 21.6328Z" fill="url(#paint9_linear)"/>
<path d="M26.7913 22.7234C26.4648 22.7234 26.1767 22.6748 25.8948 22.5488L24.8978 25.6905C25.4582 25.8819 26.0559 25.9682 26.7225 25.9682C27.3367 25.9682 27.9005 25.8762 28.4116 25.6991L27.4381 22.6315C27.2283 22.6944 27.0103 22.7254 26.7913 22.7234V22.7234Z" fill="url(#paint10_linear)"/>
<path d="M24.7959 21.6464C24.7897 21.6393 24.7836 21.6322 24.7774 21.625L22.4834 24.0108C22.4898 24.0177 22.4962 24.0246 22.5026 24.0314C23.2998 24.8808 24.0609 25.4078 24.9241 25.697L25.9203 22.5577C25.5565 22.4014 25.2047 22.1182 24.7959 21.6464Z" fill="url(#paint11_linear)"/>
<path d="M24.7774 21.6268C24.0893 20.8266 23.2381 19.4942 21.8991 17.3398L20.1542 14.4297L20.1402 14.4062L18.1156 17.4426L18.13 17.4668L19.3664 19.5467C20.5648 21.5522 21.5412 23.003 22.4834 24.0126C22.4898 24.0195 22.4962 24.0263 22.5026 24.0331L24.7958 21.6482C24.7897 21.6411 24.7836 21.634 24.7774 21.6268Z" fill="url(#paint12_linear)"/>
<defs>
<linearGradient id="paint0_linear" x1="18.8088" y1="16.2317" x2="12.0884" y2="7.42566" gradientUnits="userSpaceOnUse">
<stop offset="0.0006" stop-color="#0867DF"/>
<stop offset="0.4539" stop-color="#0668E1"/>
<stop offset="0.8591" stop-color="#0064E0"/>
</linearGradient>
<linearGradient id="paint1_linear" x1="5.72574" y1="10.5272" x2="10.333" y2="7.02944" gradientUnits="userSpaceOnUse">
<stop offset="0.1323" stop-color="#0064DF"/>
<stop offset="0.9988" stop-color="#0064E0"/>
</linearGradient>
<linearGradient id="paint2_linear" x1="3.77317" y1="15.6609" x2="5.62131" y2="11.0086" gradientUnits="userSpaceOnUse">
<stop offset="0.0147" stop-color="#0072EC"/>
<stop offset="0.6881" stop-color="#0064DF"/>
</linearGradient>
<linearGradient id="paint3_linear" x1="3.52202" y1="19.0203" x2="3.73586" y2="16.179" gradientUnits="userSpaceOnUse">
<stop offset="0.0731" stop-color="#007CF6"/>
<stop offset="0.9943" stop-color="#0072EC"/>
</linearGradient>
<linearGradient id="paint4_linear" x1="3.63962" y1="20.5639" x2="3.48665" y2="19.4256" gradientUnits="userSpaceOnUse">
<stop offset="0.0731" stop-color="#007FF9"/>
<stop offset="1" stop-color="#007CF6"/>
</linearGradient>
<linearGradient id="paint5_linear" x1="3.54947" y1="20.8609" x2="4.50275" y2="22.8828" gradientUnits="userSpaceOnUse">
<stop offset="0.0731" stop-color="#007FF9"/>
<stop offset="1" stop-color="#0082FB"/>
</linearGradient>
<linearGradient id="paint6_linear" x1="18.2019" y1="11.0803" x2="19.4622" y2="9.3373" gradientUnits="userSpaceOnUse">
<stop offset="0.2799" stop-color="#007FF8"/>
<stop offset="0.9141" stop-color="#0082FB"/>
</linearGradient>
<linearGradient id="paint7_linear" x1="27.7838" y1="8.82128" x2="30.4203" y2="18.5198" gradientUnits="userSpaceOnUse">
<stop stop-color="#0082FB"/>
<stop offset="0.9995" stop-color="#0081FA"/>
</linearGradient>
<linearGradient id="paint8_linear" x1="31.0561" y1="18.8904" x2="29.3875" y2="22.2622" gradientUnits="userSpaceOnUse">
<stop offset="0.0619" stop-color="#0081FA"/>
<stop offset="1" stop-color="#0080F9"/>
</linearGradient>
<linearGradient id="paint9_linear" x1="28.0615" y1="24.0495" x2="29.6212" y2="22.9872" gradientUnits="userSpaceOnUse">
<stop stop-color="#027AF3"/>
<stop offset="1" stop-color="#0080F9"/>
</linearGradient>
<linearGradient id="paint10_linear" x1="25.6157" y1="24.2585" x2="27.7831" y2="24.2585" gradientUnits="userSpaceOnUse">
<stop stop-color="#0377EF"/>
<stop offset="0.9994" stop-color="#0279F1"/>
</linearGradient>
<linearGradient id="paint11_linear" x1="23.731" y1="23.0623" x2="25.2892" y2="23.9791" gradientUnits="userSpaceOnUse">
<stop offset="0.0019" stop-color="#0471E9"/>
<stop offset="1" stop-color="#0377EF"/>
</linearGradient>
<linearGradient id="paint12_linear" x1="18.9779" y1="16.3045" x2="23.9693" y2="22.5803" gradientUnits="userSpaceOnUse">
<stop offset="0.2765" stop-color="#0867DF"/>
<stop offset="1" stop-color="#0471E9"/>
</linearGradient>
</defs>
</svg>
